<?xml version="1.0" standalone="no"?>
<!DOCTYPE svg PUBLIC "-//W3C//DTD SVG 20010904//EN"
 "http://www.w3.org/TR/2001/REC-SVG-20010904/DTD/svg10.dtd">
<svg version="1.0" xmlns="http://www.w3.org/2000/svg"
 width="512.000000pt" height="512.000000pt" viewBox="0 0 512.000000 512.000000"
 preserveAspectRatio="xMidYMid meet">

<g transform="translate(0.000000,512.000000) scale(0.100000,-0.100000)"
fill="#000000" stroke="none">
<path d="M180 4791 c-115 -35 -189 -142 -177 -255 3 -30 12 -67 21 -84 19 -37
69 -88 105 -106 15 -8 222 -64 460 -125 239 -60 437 -114 441 -118 4 -4 84
-585 178 -1291 150 -1123 174 -1289 195 -1335 28 -61 72 -107 125 -133 35 -18
95 -19 1421 -22 906 -1 1396 1 1421 8 89 24 156 99 193 217 14 43 143 429 288
858 l263 780 1 91 c0 84 -2 94 -30 139 -21 35 -45 56 -80 74 l-49 26 -1271 0
-1271 0 -42 -28 c-60 -39 -93 -94 -99 -164 -7 -80 31 -154 102 -198 l48 -30
1077 -5 1077 -5 -65 -222 -66 -223 -1088 0 c-1051 0 -1090 -1 -1126 -19 -142
-73 -152 -263 -17 -346 l48 -30 1032 -5 1032 -5 -61 -205 -61 -205 -1201 -3
-1200 -2 -43 332 c-23 183 -94 752 -157 1263 -69 568 -120 947 -130 974 -28
73 -80 116 -176 145 -162 48 -1035 266 -1064 265 -16 0 -40 -4 -54 -8z"/>
<path d="M1830 1169 c-123 -24 -244 -118 -302 -236 -32 -65 -33 -72 -33 -183
0 -109 2 -119 32 -182 59 -124 177 -213 316 -239 133 -25 280 25 376 126 161
171 159 429 -6 594 -65 64 -139 104 -227 120 -68 12 -92 12 -156 0z"/>
<path d="M3690 1166 c-83 -18 -149 -54 -211 -115 -170 -170 -170 -432 0 -602
248 -247 665 -109 722 240 35 221 -122 438 -350 481 -66 12 -90 12 -161 -4z"/>
</g>
</svg>
